<svg xmlns="http://www.w3.org/2000/svg" version="1.1" xmlns:xlink="http://www.w3.org/1999/xlink" xmlns:svgjs="http://svgjs.com/svgjs" width="1920" height="1080" preserveAspectRatio="none" viewBox="0 0 1920 1080"><g mask="url(&quot;#SvgjsMask1065&quot;)" fill="none"><rect width="1920" height="1080" x="0" y="0" fill="rgba(252, 177, 166, 1)"></rect><path d="M898.931,747.371C937.868,747.394,977.687,735.826,998.416,702.865C1020.395,667.916,1018.624,623.948,999.593,587.31C978.824,547.326,943.96,509.791,898.931,511.337C855.506,512.828,829.577,555.263,809.57,593.834C791.579,628.519,779.991,668.979,799.646,702.749C819.208,736.36,860.042,747.348,898.931,747.371" fill="rgba(255, 255, 255, 0.1)" class="triangle-float2"></path><path d="M248.69021543963697 362.93133995624294L310.843434905264 171.64339962444228 119.55549457346336 109.49018015881524 57.40227510783632 300.7781204906159z" fill="rgba(255, 255, 255, 0.1)" class="triangle-float1"></path><path d="M457.238,1264.802C529.644,1260.876,587.93,1212.268,624.292,1149.532C660.782,1086.577,675.366,1011.094,641.671,946.6C605.553,877.468,535.123,833.974,457.238,829.779C370.979,825.133,278.947,850.406,234.851,924.688C190.041,1000.173,207.514,1096.053,255.554,1169.525C299.165,1236.223,377.665,1269.116,457.238,1264.802" fill="rgba(255, 255, 255, 0.1)" class="triangle-float3"></path><path d="M653.2028352261405 877.4637939469187L802.8638576996716 595.9923481501567 371.7313894293784 727.8027714733876z" fill="rgba(255, 255, 255, 0.1)" class="triangle-float2"></path><path d="M1199.2956297693797 1273.144932385372L1378.8204266304808 1026.0502477094922 1131.725741954601 846.5254508483912 952.2009450935001 1093.6201355242708z" fill="rgba(255, 255, 255, 0.1)" class="triangle-float2"></path><path d="M493.00785885726094 259.7698126867059L373.27114468695254 14.273167645240392 127.77449964548708 134.00988181554877 247.51121381579543 379.50652685701425z" fill="rgba(255, 255, 255, 0.1)" class="triangle-float2"></path><path d="M1407.305,1231.313C1516.873,1232.763,1614.987,1159.015,1661.615,1059.852C1702.645,972.593,1659.814,878.57,1612.738,794.419C1564.029,707.35,1507.05,607.422,1407.305,605.261C1305.394,603.054,1234.443,695.562,1185.856,785.172C1140.055,869.644,1121.668,967.203,1164.39,1053.273C1212.229,1149.652,1299.715,1229.889,1407.305,1231.313" fill="rgba(255, 255, 255, 0.1)" class="triangle-float1"></path><path d="M189.15 1075.06 a269.63 269.63 0 1 0 539.26 0 a269.63 269.63 0 1 0 -539.26 0z" fill="rgba(255, 255, 255, 0.1)" class="triangle-float2"></path><path d="M1406.0324097164253 271.8890475025687L1241.8927557199984 374.4548867179372 1508.5982489317937 436.0287014989956z" fill="rgba(255, 255, 255, 0.1)" class="triangle-float1"></path><path d="M1545.5962036712717 817.9706479249344L1381.0803542843282 679.9254593815332 1407.5510151278706 982.4864973118778z" fill="rgba(255, 255, 255, 0.1)" class="triangle-float2"></path><path d="M1041.518,307.866C1087.39,310.475,1129.137,281.416,1151.56,241.313C1173.454,202.155,1173.612,153.228,1148.927,115.767C1126.295,81.421,1082.648,74.723,1041.518,74.315C999.398,73.897,951.496,77.168,930.353,113.599C909.161,150.115,930.244,193.272,951.213,229.917C972.381,266.909,998.967,305.446,1041.518,307.866" fill="rgba(255, 255, 255, 0.1)" class="triangle-float3"></path></g><defs><mask id="SvgjsMask1065"><rect width="1920" height="1080" fill="#ffffff"></rect></mask><style>
            @keyframes float1 {
                0%{transform: translate(0, 0)}
                50%{transform: translate(-10px, 0)}
                100%{transform: translate(0, 0)}
            }

            .triangle-float1 {
                animation: float1 5s infinite;
            }

            @keyframes float2 {
                0%{transform: translate(0, 0)}
                50%{transform: translate(-5px, -5px)}
                100%{transform: translate(0, 0)}
            }

            .triangle-float2 {
                animation: float2 4s infinite;
            }

            @keyframes float3 {
                0%{transform: translate(0, 0)}
                50%{transform: translate(0, -10px)}
                100%{transform: translate(0, 0)}
            }

            .triangle-float3 {
                animation: float3 6s infinite;
            }
        </style></defs></svg>